Patient4_TMGait_0pt5_01_left_35_EMG.mot
version=1
nRows=13
nColumns=33
inDegrees=no
endheader
time	1LAddLong	2LGlutMax	3LGlutMed	4LIliopsoas	5LSemiMemb	6LBicFemLong	7LRecFem	8LVastMed	9LVastLat	10LGasMed	11LTibAnt	12lTibPost	13LPeroneusLong	14LSol	15LExtDigLong	16LFlexDigLong	17RAddLong	18RGlutMax	19RGlutMed	20RIliopsoas	21RSemiMemb	22RBicFemLong	23RRecFem	24RVastMed	25RVastLat	26RGasMed	27RTibAnt	28RTibPost	29RPeroneusLong	30RSol	31RExtDigLong	32RFlexDigLong
46.61	0.008698	0.067902	-0.061798	-0.00473	0.01236	-0.070038	0.008087	-0.003815	0.091095	-0.017395	0.015717	0.001984	0.050201	0.052795	0.016022	0.001526	0.045624	0.21271	0.16113	-0.17059	0.15243	-0.11017	0.10025	-0.067139	-0.007629	-0.13733	-0.1181	-0.11688	-0.41306	-1.3886	0.000916	-0.011444
46.611	0.005798	0.093231	-0.013123	0.013275	0.023499	-0.054474	-0.016174	-0.005341	0.09552	-0.020142	0.016174	0.001831	0.1091	0.007629	-0.001526	0.000305	0.042572	0.19211	0.11795	-0.027924	-0.071106	-0.099182	0.10849	-0.12436	-0.014191	-0.18677	-0.62744	-0.31952	-0.21606	-0.45578	-0.000763	-0.012817
46.612	0.008545	0.12085	-0.006714	0.001984	0.03891	-0.038757	-0.026398	-0.004272	0.089569	-0.023956	0.016174	0.012512	0.10925	-0.032196	-0.005035	0.000458	0.022125	0.23346	0.11749	0.10498	-0.37338	0.004883	0.064392	-0.112	-0.004272	-0.074921	-0.82657	-0.12787	-0.35461	1.4035	-0.001221	-0.003357
46.613	0.005798	0.12894	0.011902	0.01297	0.003967	-0.035248	-0.018311	-0.007324	0.09079	-0.031128	0.020752	-0.001526	0.10757	-0.012817	-0.011902	-0.007019	0.020752	0.10452	0.31326	0.094299	-0.39612	0.045013	0.058289	-0.018768	0.010376	0.022278	-0.67017	-0.24445	-0.2565	1.691	0	-0.003357
46.614	0.012207	0.082092	-0.054474	0.00885	-0.001068	-0.02533	-0.029907	-0.008545	0.077667	-0.046692	0.018158	0.001678	0.14648	0.042725	-0.01358	-0.00412	0.001831	-0.011597	-0.13336	0.0354	-0.21851	0.03006	0.048676	0.061035	0.002441	-0.038757	-0.1001	0.51971	0.020905	1.6072	0.002594	-0.003815
46.615	0.006866	0.066223	-0.028076	0.007172	0.007629	-0.033569	-0.022888	-0.005951	0.082703	-0.037842	0.011749	0.010223	0.15793	0.065308	-0.013275	-0.006104	0.002747	-0.10696	-0.53192	-0.019531	0.17487	0.095367	0.06485	0.099487	0.009613	-0.055237	0.2446	0.56412	0.09201	1.25	-0.001526	-0.012665
46.616	0.006714	0.076904	-0.016632	0.00946	0.00351	-0.049438	-0.035095	-0.001068	0.080872	-0.025024	0.009613	0.005188	0.13962	0.03418	-0.005493	-0.001068	-0.020599	-0.17273	-0.45654	-0.002136	0.18295	0.26672	0.027924	0.1413	0.017242	-0.11444	0.38788	0.34241	0.23346	0.81818	0	-0.001373
46.617	0.008545	0.077667	-0.040741	0.010834	0.024261	-0.024719	-0.038147	-0.002289	0.081482	-0.024872	0.027313	0.004883	0.10681	-0.01358	-0.016785	-0.000153	-0.037079	-0.18601	-0.45517	0.013428	0.19409	0.28076	0.025787	0.041962	-0.009918	-0.12833	0.31403	0.11597	0.15381	1.001	0.00061	0.002899
46.618	0.006256	0.10162	-0.0354	0.011902	0.021667	-0.018311	-0.045319	-0.00473	0.077972	-0.010834	0.022278	0.004578	0.068817	0.020905	-0.008545	-0.00351	-0.03418	-0.22644	0.31799	0.08606	0.039063	0.27496	0.028687	0.090485	0.021362	-0.035553	-0.103	-0.16052	0.064545	1.4047	0.002899	-0.004578
46.619	0.007935	0.11383	-0.066376	0.009613	0.019226	-0.010834	-0.030975	-0.007477	0.071716	0.002747	0.01297	0.004272	0.058441	0.093231	-0.007782	-0.00351	-0.02655	-0.21316	0.45181	0.092163	-0.22003	0.1564	0.035858	0.041962	-0.008545	0.072937	-0.11337	-0.19928	0.010071	1.1859	0.000763	-0.011292
46.62	0.006409	0.091248	-0.052032	0.005341	0.020905	-0.018768	-0.041962	-0.007019	0.075073	-0.006714	0.01709	0.006256	0.062408	0.043488	-0.006714	0.00351	-0.019226	-0.27741	0.66666	0.029602	-0.14252	-0.074768	0.10605	-0.041656	0.001678	0.063934	0.3891	0.25681	0.26001	0.71823	-0.00061	-0.00412
46.621	0.007782	0.088043	-0.07431	0.003815	0.008087	-0.015869	-0.029449	-0.00824	0.070801	-0.005493	0.007172	0.001984	0.07843	-0.022888	0.000305	-0.003204	-0.007324	-0.19348	0.63278	0.041809	-0.18707	-0.18036	0.10696	-0.059052	0.001678	0.061493	0.48904	0.044403	0.40283	0.40649	0.000153	-0.016937
46.622	0.005646	0.10941	-0.096893	0.004425	0.023346	-0.003967	-0.033417	-0.007019	0.068512	-0.006409	0.007629	0.003967	0.091858	-0.10544	0.000305	0.002747	-0.00473	-0.20706	-0.097504	0.033417	-0.11612	-0.17151	0.16327	-0.006714	0.018005	0.057831	0.48035	-0.11566	0.41519	-0.21988	-0.00061	-0.011749
